<svg version="1.1" viewBox="0.0 0.0 664.3359580052494 100.0" fill="none" stroke="none" stroke-linecap="square" stroke-miterlimit="10" xmlns:xlink="http://www.w3.org/1999/xlink" xmlns="http://www.w3.org/2000/svg"><clipPath id="p.0"><path d="m0 0l664.33594 0l0 100.0l-664.33594 0l0 -100.0z" clip-rule="nonzero"/></clipPath><g clip-path="url(#p.0)"><path fill="#000000" fill-opacity="0.0" d="m0 0l664.33594 0l0 100.0l-664.33594 0z" fill-rule="evenodd"/><path fill="#000000" fill-opacity="0.0" d="m184.64587 8.582089l428.22046 0l41.41736 41.417324l-41.41736 41.41732l-428.22046 0z" fill-rule="evenodd"/><path stroke="#ffffff" stroke-width="3.0" stroke-linejoin="round" stroke-linecap="butt" d="m184.64587 8.582089l428.22046 0l41.41736 41.417324l-41.41736 41.41732l-428.22046 0z" fill-rule="evenodd"/><path fill="#000000" fill-opacity="0.0" d="m-47.695538 -7.485564l661.13385 0l0 120.0l-661.13385 0z" fill-rule="evenodd"/><path fill="#ffffff" d="m39.7542 57.25193l0 -9.640625l24.921871 0l0 22.8125q-3.6406212 3.515625 -10.531246 6.203125q-6.890625 2.671875 -13.96875 2.671875q-8.984375 0 -15.671875 -3.765625q-6.671875 -3.78125 -10.031251 -10.796875q-3.359375 -7.015625 -3.359375 -15.25q0 -8.953125 3.75 -15.90625q3.750001 -6.953125 10.984376 -10.65625q5.5 -2.859375 13.703125 -2.859375q10.671875 0 16.65625 4.484375q6.0 4.46875 7.71875 12.359375l-11.484375 2.140625q-1.203125 -4.21875 -4.546875 -6.65625q-3.34375 -2.4375 -8.34375 -2.4375q-7.578125 0 -12.046875 4.8125q-4.46875 4.796875 -4.46875 14.25q0 10.1875 4.53125 15.296875q4.53125 5.09375 11.875 5.09375q3.625 0 7.28125 -1.421875q3.65625 -1.4375 6.265625 -3.46875l0 -7.265625l-13.234375 0zm35.585934 21.0625l0 -57.265625l42.453125 0l0 9.6875l-30.890625 0l0 12.6875l28.75 0l0 9.65625l-28.75 0l0 15.578125l31.984375 0l0 9.65625l-43.546875 0zm66.25 0l0 -47.578125l-17.0 0l0 -9.6875l45.515625 0l0 9.6875l-16.953125 0l0 47.578125l-11.5625 0z" fill-rule="nonzero"/><path fill="#ffffff" d="m199.79326 78.31443l0 -57.265625l18.546875 0q10.546875 0 13.75 0.859375q4.921875 1.28125 8.234375 5.609375q3.328125 4.3125 3.328125 11.140625q0 5.28125 -1.921875 8.875q-1.90625 3.59375 -4.859375 5.640625q-2.9375 2.046875 -5.984375 2.71875q-4.140625 0.8125 -12.0 0.8125l-7.53125 0l0 21.609375l-11.5625 0zm11.5625 -47.578125l0 16.25l6.328125 0q6.828125 0 9.125 -0.890625q2.3125 -0.90625 3.625 -2.8125q1.3125 -1.921875 1.3125 -4.46875q0 -3.125 -1.84375 -5.15625q-1.828125 -2.03125 -4.640625 -2.53125q-2.078125 -0.390625 -8.328125 -0.390625l-5.578125 0zm41.828125 47.578125l0 -57.265625l24.343765 0q9.171875 0 13.328125 1.546875q4.171875 1.53125 6.671875 5.484375q2.5 3.9375 2.5 9.015625q0 6.453125 -3.796875 10.65625q-3.78125 4.1875 -11.328125 5.28125q3.75 2.1875 6.1875 4.8125q2.453125 2.609375 6.59375 9.296875l6.984375 11.171875l-13.828125 0l-8.359375 -12.46875q-4.453125 -6.671875 -6.09375 -8.40625q-1.640625 -1.75 -3.484375 -2.390625q-1.828125 -0.640625 -5.8125 -0.640625l-2.34375 0l0 23.90625l-11.562515 0zm11.562515 -33.046875l8.5625 0q8.3125 0 10.375 -0.703125q2.078125 -0.703125 3.25 -2.421875q1.171875 -1.71875 1.171875 -4.296875q0 -2.890625 -1.546875 -4.671875q-1.53125 -1.78125 -4.34375 -2.25q-1.40625 -0.1875 -8.4375 -0.1875l-9.03125 0l0 14.53125zm45.820312 33.046875l0 -57.265625l11.5625 0l0 57.265625l-11.5625 0zm22.429688 0l0 -57.265625l17.296875 0l10.390625 39.0625l10.28125 -39.0625l17.34375 0l0 57.265625l-10.75 0l0 -45.078125l-11.359375 45.078125l-11.140625 0l-11.328125 -45.078125l0 45.078125l-10.734375 0zm66.796875 0l0 -57.265625l42.453125 0l0 9.6875l-30.890625 0l0 12.6875l28.75 0l0 9.65625l-28.75 0l0 15.578125l31.984375 0l0 9.65625l-43.546875 0zm53.390625 0l0 -57.265625l24.34372 0q9.171875 0 13.328125 1.546875q4.171875 1.53125 6.671875 5.484375q2.5 3.9375 2.5 9.015625q0 6.453125 -3.796875 10.65625q-3.78125 4.1875 -11.328125 5.28125q3.75 2.1875 6.1875 4.8125q2.453125 2.609375 6.59375 9.296875l6.984375 11.171875l-13.828125 0l-8.359375 -12.46875q-4.453125 -6.671875 -6.09375 -8.40625q-1.640625 -1.75 -3.484375 -2.390625q-1.828125 -0.640625 -5.8125 -0.640625l-2.34375 0l0 23.90625l-11.5624695 0zm11.5624695 -33.046875l8.5625 0q8.3125 0 10.375 -0.703125q2.078125 -0.703125 3.25 -2.421875q1.171875 -1.71875 1.171875 -4.296875q0 -2.890625 -1.546875 -4.671875q-1.53125 -1.78125 -4.34375 -2.25q-1.40625 -0.1875 -8.4375 -0.1875l-9.03125 0l0 14.53125zm43.242188 14.40625l11.2499695 -1.09375q1.015625 5.671875 4.125 8.328125q3.109375 2.65625 8.375 2.65625q5.59375 0 8.421875 -2.359375q2.828125 -2.375 2.828125 -5.53125q0 -2.03125 -1.1875 -3.453125q-1.1875 -1.4375 -4.15625 -2.484375q-2.03125 -0.703125 -9.265625 -2.5q-9.296875 -2.3125 -13.046875 -5.671875q-5.2655945 -4.71875 -5.2655945 -11.515625q0 -4.375 2.4687195 -8.1875q2.484375 -3.8125 7.15625 -5.796875q4.671875 -2.0 11.265625 -2.0q10.78125 0 16.234375 4.734375q5.453125 4.71875 5.71875 12.609375l-11.5625 0.515625q-0.734375 -4.421875 -3.1875 -6.34375q-2.4375 -1.9375 -7.3125 -1.9375q-5.046875 0 -7.890625 2.0625q-1.84375 1.328125 -1.84375 3.5625q0 2.03125 1.71875 3.46875q2.1875 1.84375 10.625 3.84375q8.4375 1.984375 12.484375 4.109375q4.046875 2.125 6.328125 5.828125q2.28125 3.6875 2.28125 9.109375q0 4.921875 -2.734375 9.21875q-2.734375 4.296875 -7.734375 6.390625q-5.0 2.09375 -12.453125 2.09375q-10.859375 0 -16.6875 -5.015625q-5.8124695 -5.03125 -6.9530945 -14.640625z" fill-rule="nonzero"/></g></svg>