<svg version="1.1" viewBox="0.0 0.0 369.49343832021 100.0" fill="none" stroke="none" stroke-linecap="square" stroke-miterlimit="10" xmlns:xlink="http://www.w3.org/1999/xlink" xmlns="http://www.w3.org/2000/svg"><clipPath id="p.0"><path d="m0 0l369.49344 0l0 100.0l-369.49344 0l0 -100.0z" clip-rule="nonzero"/></clipPath><g clip-path="url(#p.0)"><path fill="#000000" fill-opacity="0.0" d="m0 0l369.49344 0l0 100.0l-369.49344 0z" fill-rule="evenodd"/><path fill="#000000" fill-opacity="0.0" d="m113.997375 26.755905l224.12598 0l23.338593 23.338585l-23.338593 23.338577l-224.12598 0z" fill-rule="evenodd"/><path stroke="#ffffff" stroke-width="1.0" stroke-linejoin="round" stroke-linecap="butt" d="m113.997375 26.755905l224.12598 0l23.338593 23.338585l-23.338593 23.338577l-224.12598 0z" fill-rule="evenodd"/><path fill="#000000" fill-opacity="0.0" d="m8.031496 15.0236225l315.71652 0l0 69.95276l-315.71652 0z" fill-rule="evenodd"/><path fill="#666666" d="m40.287235 52.828617l0 -4.984375l12.875 0l0 11.78125q-1.875 1.8125 -5.4375 3.203125q-3.5625 1.3750038 -7.21875 1.3750038q-4.640625 0 -8.09375 -1.9375038q-3.437502 -1.953125 -5.171877 -5.578125q-1.734375 -3.625 -1.734375 -7.875q0 -4.625 1.9375 -8.21875q1.9375 -3.59375 5.656252 -5.5q2.859375 -1.484375 7.09375 -1.484375q5.5 0 8.59375 2.3125q3.109375 2.3125 4.0 6.390625l-5.9375 1.109375q-0.625 -2.171875 -2.359375 -3.4375q-1.71875 -1.265625 -4.296875 -1.265625q-3.921875 0 -6.234375 2.484375q-2.312502 2.484375 -2.312502 7.359375q0 5.265625 2.343752 7.90625q2.34375 2.640625 6.140625 2.640625q1.875 0 3.765625 -0.734375q1.890625 -0.75 3.234375 -1.796875l0 -3.75l-6.84375 0zm18.380722 10.875l0 -29.578125l21.937496 0l0 5.0l-15.953125 0l0 6.5625l14.84375 0l0 4.984375l-14.84375 0l0 8.046875l16.515625 0l0 4.984375l-22.499996 0zm34.237408 0l0 -24.578125l-8.78125 0l0 -5.0l23.5 0l0 5.0l-8.75 0l0 24.578125l-5.96875 0z" fill-rule="nonzero"/><path fill="#ffffff" d="m122.96065 63.703617l0 -29.578125l9.59375 0q5.453125 0 7.109375 0.4375q2.53125 0.671875 4.25 2.90625q1.71875 2.21875 1.71875 5.75q0 2.71875 -1.0 4.578125q-0.984375 1.859375 -2.515625 2.921875q-1.515625 1.0625 -3.09375 1.40625q-2.125 0.421875 -6.1875 0.421875l-3.890625 0l0 11.15625l-5.984375 0zm5.984375 -24.578125l0 8.390625l3.265625 0q3.53125 0 4.71875 -0.453125q1.1875 -0.46875 1.859375 -1.453125q0.6875 -1.0 0.6875 -2.3125q0 -1.609375 -0.953125 -2.65625q-0.953125 -1.046875 -2.40625 -1.3125q-1.0625 -0.203125 -4.296875 -0.203125l-2.875 0zm21.612411 24.578125l0 -29.578125l12.5625 0q4.75 0 6.890625 0.796875q2.15625 0.796875 3.4375 2.84375q1.296875 2.03125 1.296875 4.640625q0 3.34375 -1.953125 5.515625q-1.953125 2.15625 -5.859375 2.71875q1.9375 1.140625 3.203125 2.5q1.265625 1.34375 3.40625 4.796875l3.609375 5.765625l-7.140625 0l-4.328125 -6.4375q-2.296875 -3.453125 -3.140625 -4.34375q-0.84375 -0.90625 -1.796875 -1.234375q-0.953125 -0.328125 -3.0 -0.328125l-1.21875 0l0 12.34375l-5.96875 0zm5.96875 -17.078125l4.421875 0q4.296875 0 5.359375 -0.359375q1.078125 -0.359375 1.671875 -1.25q0.609375 -0.890625 0.609375 -2.21875q0 -1.5 -0.796875 -2.40625q-0.796875 -0.921875 -2.25 -1.171875q-0.71875 -0.09375 -4.359375 -0.09375l-4.65625 0l0 7.5zm23.67398 17.078125l0 -29.578125l5.96875 0l0 29.578125l-5.96875 0zm11.576035 0l0 -29.578125l8.9375 0l5.375 20.171875l5.3125 -20.171875l8.953125 0l0 29.578125l-5.546875 0l0 -23.28125l-5.875 23.28125l-5.75 0l-5.859375 -23.28125l0 23.28125l-5.546875 0zm34.504776 0l0 -29.578125l21.9375 0l0 5.0l-15.953125 0l0 6.5625l14.84375 0l0 4.984375l-14.84375 0l0 8.046875l16.515625 0l0 4.984375l-22.5 0zm27.596786 0l0 -29.578125l12.562485 0q4.75 0 6.890625 0.796875q2.15625 0.796875 3.4375 2.84375q1.296875 2.03125 1.296875 4.640625q0 3.34375 -1.953125 5.515625q-1.953125 2.15625 -5.859375 2.71875q1.9375 1.140625 3.203125 2.5q1.265625 1.34375 3.40625 4.796875l3.609375 5.765625l-7.140625 0l-4.328125 -6.4375q-2.296875 -3.453125 -3.140625 -4.34375q-0.84375 -0.90625 -1.796875 -1.234375q-0.9530945 -0.328125 -2.9999695 -0.328125l-1.21875 0l0 12.34375l-5.9687653 0zm5.9687653 -17.078125l4.4218445 0q4.296875 0 5.359375 -0.359375q1.078125 -0.359375 1.671875 -1.25q0.609375 -0.890625 0.609375 -2.21875q0 -1.5 -0.796875 -2.40625q-0.796875 -0.921875 -2.25 -1.171875q-0.71875 -0.09375 -4.359375 -0.09375l-4.6562195 0l0 7.5zm22.345856 7.453125l5.8125 -0.5625q0.515625 2.921875 2.109375 4.296875q1.609375 1.375 4.34375 1.375q2.875 0 4.34375 -1.21875q1.46875 -1.234375 1.46875 -2.859375q0 -1.046875 -0.625 -1.78125q-0.609375 -0.75 -2.140625 -1.28125q-1.046875 -0.375 -4.78125 -1.296875q-4.8125 -1.1875 -6.75 -2.921875q-2.71875 -2.453125 -2.71875 -5.953125q0 -2.265625 1.28125 -4.234375q1.28125 -1.96875 3.6875 -3.0q2.421875 -1.03125 5.828125 -1.03125q5.5625 0 8.375 2.453125q2.828125 2.4375 2.96875 6.515625l-5.96875 0.265625q-0.390625 -2.28125 -1.65625 -3.28125q-1.25 -1.0 -3.78125 -1.0q-2.609375 0 -4.078125 1.0625q-0.9375 0.6875 -0.9375 1.84375q0 1.046875 0.875 1.796875q1.140625 0.9375 5.5 1.96875q4.359375 1.03125 6.4375 2.140625q2.09375 1.09375 3.265625 3.0q1.1875 1.90625 1.1875 4.71875q0 2.53125 -1.421875 4.75q-1.40625 2.21875 -3.984375 3.3125q-2.578125 1.0781288 -6.4375 1.0781288q-5.609375 0 -8.625 -2.5937538q-3.0 -2.59375 -3.578125 -7.5625z" fill-rule="nonzero"/></g></svg>